<svg width="24" height="25" viewBox="0 0 24 25" fill="none" xmlns="http://www.w3.org/2000/svg">
<path d="M11 4.79639H4C3.46957 4.79639 2.96086 5.0071 2.58579 5.38217C2.21071 5.75725 2 6.26595 2 6.79639V20.7964C2 21.3268 2.21071 21.8355 2.58579 22.2106C2.96086 22.5857 3.46957 22.7964 4 22.7964H18C18.5304 22.7964 19.0391 22.5857 19.4142 22.2106C19.7893 21.8355 20 21.3268 20 20.7964V13.7964" stroke="black" stroke-width="2" stroke-linecap="round" stroke-linejoin="round"/>
<path d="M18.5 3.29637C18.8978 2.89854 19.4374 2.67505 20 2.67505C20.5626 2.67505 21.1022 2.89854 21.5 3.29637C21.8978 3.69419 22.1213 4.23376 22.1213 4.79637C22.1213 5.35898 21.8978 5.89854 21.5 6.29637L12 15.7964L8 16.7964L9 12.7964L18.5 3.29637Z" stroke="black" stroke-width="2" stroke-linecap="round" stroke-linejoin="round"/>
</svg>
