<svg width="19" height="21" viewBox="0 0 19 21" fill="none" xmlns="http://www.w3.org/2000/svg">
<g clip-path="url(#clip0_28_708)">
<path d="M9.50185 21C7.56375 21 5.88826 20.5637 4.46798 19.6873C3.04769 18.8146 1.94919 17.5892 1.16878 16.0184C0.388359 14.4477 0 12.6114 0 10.5095C0 8.40759 0.388359 6.56748 1.16878 4.98916C1.94919 3.40705 3.04769 2.18157 4.46798 1.30894C5.88826 0.436314 7.56375 0 9.50185 0C11.4399 0 13.1154 0.436314 14.5357 1.31274C15.956 2.18537 17.0545 3.41463 17.8349 4.99295C18.6153 6.57507 19.0037 8.41518 19.0037 10.5133C19.0037 12.6114 18.6153 14.4515 17.8349 16.0222C17.0545 17.593 15.956 18.8146 14.5357 19.6911C13.1154 20.5637 11.4362 21.0038 9.50185 21.0038V21Z" fill="#B0E298"/>
<path d="M8.90636 16.7545C8.66594 16.7545 8.42923 16.6824 8.2258 16.542L3.5655 13.355C3.0033 12.9681 2.84796 12.1903 3.22522 11.6098C3.60248 11.0331 4.36071 10.8737 4.9266 11.2607L8.55498 13.742L13.6887 5.63418C14.0586 5.04989 14.8168 4.88675 15.3864 5.26615C15.956 5.64556 16.115 6.42334 15.7452 7.00762L9.93458 16.1816C9.75705 16.4624 9.47595 16.6596 9.15417 16.7279C9.0728 16.7469 8.98773 16.7545 8.90636 16.7545Z" fill="#F5F7FF"/>
</g>
<defs>
<clipPath id="clip0_28_708">
<rect width="19" height="21" fill="white"/>
</clipPath>
</defs>
</svg>
