<svg width="19" height="20" viewBox="0 0 19 20" fill="none" xmlns="http://www.w3.org/2000/svg">
<path d="M2.375 5.25H3.95833H16.625" stroke="black" stroke-width="2" stroke-linecap="round" stroke-linejoin="round"/>
<path d="M15.0416 5.24998V16.3333C15.0416 16.7532 14.8748 17.156 14.5778 17.4529C14.2809 17.7498 13.8782 17.9166 13.4583 17.9166H5.54159C5.12166 17.9166 4.71893 17.7498 4.422 17.4529C4.12507 17.156 3.95825 16.7532 3.95825 16.3333V5.24998M6.33325 5.24998V3.66665C6.33325 3.24672 6.50007 2.84399 6.797 2.54706C7.09393 2.25013 7.49666 2.08331 7.91659 2.08331H11.0833C11.5032 2.08331 11.9059 2.25013 12.2028 2.54706C12.4998 2.84399 12.6666 3.24672 12.6666 3.66665V5.24998" stroke="black" stroke-width="2" stroke-linecap="round" stroke-linejoin="round"/>
<path d="M7.91675 9.20831V13.9583" stroke="black" stroke-width="2" stroke-linecap="round" stroke-linejoin="round"/>
<path d="M11.0833 9.20831V13.9583" stroke="black" stroke-width="2" stroke-linecap="round" stroke-linejoin="round"/>
</svg>
